# xmcd
#
# Track frame offsets:
#	150
#	17545
#	32953
#	52620
#	69354
#	85058
#	101576
#	118685
#	134890
#	147930
#	163666
#	183230
#	200230
#	216545
#	235364
#	252203
#	266976
#	281977
#	299959
#
# Disc length: 4140 seconds
#
# Revision: 1
# Processed by: cddbd v1.5.2PL0 Copyright (c) Steve Scherf et al.
# Submitted via: audiograbber 1.83.01
#
DISCID=37102a13
DTITLE=Various Artist - Hott Country 166
DYEAR=2009
DGENRE=Country
TTITLE0=Keith Urban - Til Summer Comes Around
TTITLE1=Chris Young - The Man I Want To Be
TTITLE2=George Canyon Feat Crystal Shawanda - In Your Arms Again
TTITLE3=Billy Currington - That's How Country Boys Roll
TTITLE4=Emerson Drive - The Extra Mile
TTITLE5=Chris Young - Gettin' You Home ( The Black Dress Song ) ( Live Acoustic
TTITLE5=Version )
TTITLE6=Love And Theft - Runaway
TTITLE7=Victoria Banks - Kiss Me
TTITLE8=Randy Houser - Whistlin' Dixie
TTITLE9=Jessie Farrell - Nobody Says No
TTITLE10=Carrie Underwood - Temporary Home ( Radio Edit )
TTITLE11=Bucky Covington - Gotta Be Somebody
TTITLE12=Jann Arden - Free ( Country )
TTITLE13=Lee Ann Womack - There Is A God
TTITLE14=Montgomery Gentry - Oughta Be More Songs About That ( Single Edit )
TTITLE15=Crystal Shawanda - I'll Be Home for Christmas
TTITLE16=Darius Rucker - Candy CAne Christmas
TTITLE17=Sugarland - Gold And Green
TTITLE18=Willie Nelson - Paper Roses ( 1964 )
EXTD=December 2009
EXTT0=
EXTT1=
EXTT2=
EXTT3=
EXTT4=
EXTT5=
EXTT6=
EXTT7=
EXTT8=
EXTT9=
EXTT10=
EXTT11=
EXTT12=
EXTT13=
EXTT14=
EXTT15=
EXTT16=
EXTT17=
EXTT18=
PLAYORDER=
